<svg xmlns="http://www.w3.org/2000/svg" viewBox="0 0 20 19.88"><defs><style>.cls-1{fill:#2a0021;}.cls-2{fill:#d1ffc9;}</style></defs><g id="Layer_2" data-name="Layer 2"><g id="Layer_2-2" data-name="Layer 2"><path class="cls-1" d="M0,10C0,2.68,2.68,0,10,0S20,2.68,20,10V9.88c0,7.31-2.68,10-10,10S0,17.19,0,9.88"/><path class="cls-2" d="M2.38,14.19V5.31a.76.76,0,0,1,.77-.76h0a.76.76,0,0,1,.76.76v8.88a.76.76,0,0,1-.76.76h0A.76.76,0,0,1,2.38,14.19Zm0-8.25V4.55s5.67-1.21,6.89,0c.24.25,0,1.39,0,1.39Zm0,4.5V9.05S7,8.07,8,9.05c.25.25,0,1.39,0,1.39Zm0,4.51V13.56H9.27s.24,1.15,0,1.39C8.05,16.17,2.38,15,2.38,15Z"/><path class="cls-2" d="M12,15a.76.76,0,0,1-.76-.76v-7h.71a.76.76,0,0,1,.76.69l.08.92v5.39A.76.76,0,0,1,12,15Zm4.78,0a.76.76,0,0,1-.76-.76V9.9a1.54,1.54,0,0,0-.37-1.09,1.37,1.37,0,0,0-1-.38c-1.23,0-1.84.72-1.84,2.16l-.45-2h.6a1.54,1.54,0,0,1,.57-1.17A2.4,2.4,0,0,1,15,7a2.44,2.44,0,0,1,1.91.75,3.09,3.09,0,0,1,.67,2.11v4.29a.76.76,0,0,1-.76.76Z"/></g></g></svg>